<mxfile host="app.diagrams.net" agent="Mozilla/5.0 (Windows NT 10.0; Win64; x64) AppleWebKit/537.36 (KHTML, like Gecko) Chrome/133.0.0.0 Safari/537.36" version="24.9.0">
  <diagram name="Página-1" id="XbG3uofU3uGCrIskEWIJ">
    <mxGraphModel dx="1114" dy="1769" grid="1" gridSize="10" guides="1" tooltips="1" connect="1" arrows="1" fold="1" page="1" pageScale="1" pageWidth="827" pageHeight="1169" background="#FFE6CC" math="0" shadow="1">
      <root>
        <mxCell id="0" />
        <mxCell id="1" parent="0" />
        <mxCell id="hch1gG18QH-EERP9HJ0n-14" style="edgeStyle=orthogonalEdgeStyle;rounded=0;orthogonalLoop=1;jettySize=auto;html=1;entryX=0.5;entryY=0;entryDx=0;entryDy=0;fillColor=#0050ef;strokeColor=#001DBC;" edge="1" parent="1" source="hch1gG18QH-EERP9HJ0n-1" target="hch1gG18QH-EERP9HJ0n-13">
          <mxGeometry relative="1" as="geometry" />
        </mxCell>
        <mxCell id="hch1gG18QH-EERP9HJ0n-22" style="edgeStyle=orthogonalEdgeStyle;rounded=0;orthogonalLoop=1;jettySize=auto;html=1;entryX=0;entryY=0.5;entryDx=0;entryDy=0;fillColor=#0050ef;strokeColor=#001DBC;" edge="1" parent="1" source="hch1gG18QH-EERP9HJ0n-1" target="hch1gG18QH-EERP9HJ0n-21">
          <mxGeometry relative="1" as="geometry" />
        </mxCell>
        <mxCell id="hch1gG18QH-EERP9HJ0n-26" style="rounded=0;orthogonalLoop=1;jettySize=auto;html=1;entryX=0.086;entryY=0.757;entryDx=0;entryDy=0;entryPerimeter=0;fillColor=#0050ef;strokeColor=#001DBC;" edge="1" parent="1" source="hch1gG18QH-EERP9HJ0n-1" target="hch1gG18QH-EERP9HJ0n-25">
          <mxGeometry relative="1" as="geometry">
            <Array as="points">
              <mxPoint x="200" y="200" />
            </Array>
          </mxGeometry>
        </mxCell>
        <mxCell id="hch1gG18QH-EERP9HJ0n-1" value="&lt;font color=&quot;#000000&quot;&gt;&lt;b&gt;&lt;i&gt;Usuário registrado&lt;/i&gt;&lt;/b&gt;&lt;/font&gt;" style="shape=umlActor;verticalLabelPosition=bottom;verticalAlign=top;html=1;sketch=1;curveFitting=1;jiggle=2;fillColor=#0050ef;strokeColor=#001DBC;fontColor=#ffffff;" vertex="1" parent="1">
          <mxGeometry x="90" y="250" width="70" height="120" as="geometry" />
        </mxCell>
        <mxCell id="hch1gG18QH-EERP9HJ0n-23" style="edgeStyle=orthogonalEdgeStyle;rounded=0;orthogonalLoop=1;jettySize=auto;html=1;entryX=1;entryY=0.5;entryDx=0;entryDy=0;fillColor=#008a00;strokeColor=#005700;" edge="1" parent="1" source="hch1gG18QH-EERP9HJ0n-3" target="hch1gG18QH-EERP9HJ0n-21">
          <mxGeometry relative="1" as="geometry">
            <Array as="points">
              <mxPoint x="410" y="300" />
              <mxPoint x="410" y="595" />
            </Array>
          </mxGeometry>
        </mxCell>
        <mxCell id="hch1gG18QH-EERP9HJ0n-3" value="&lt;b&gt;&lt;font color=&quot;#000000&quot;&gt;&lt;i&gt;Usuário não registrado&lt;/i&gt;&lt;/font&gt;&lt;/b&gt;&lt;div&gt;&lt;br&gt;&lt;/div&gt;" style="shape=umlActor;verticalLabelPosition=bottom;verticalAlign=top;html=1;fillColor=#008a00;fontColor=#ffffff;strokeColor=#005700;sketch=1;curveFitting=1;jiggle=2;" vertex="1" parent="1">
          <mxGeometry x="250" y="240" width="70" height="120" as="geometry" />
        </mxCell>
        <mxCell id="hch1gG18QH-EERP9HJ0n-5" value="&lt;font style=&quot;&quot; color=&quot;#000000&quot;&gt;&lt;i&gt;&lt;b&gt;Administrador&lt;/b&gt;&lt;/i&gt;&lt;/font&gt;&lt;div&gt;&lt;br&gt;&lt;/div&gt;" style="shape=umlActor;verticalLabelPosition=bottom;verticalAlign=top;html=1;sketch=1;curveFitting=1;jiggle=2;fillColor=#1ba1e2;fontColor=#ffffff;strokeColor=#006EAF;" vertex="1" parent="1">
          <mxGeometry x="414" y="240" width="70" height="120" as="geometry" />
        </mxCell>
        <mxCell id="hch1gG18QH-EERP9HJ0n-10" value="&lt;div&gt;&lt;font color=&quot;#000000&quot;&gt;&lt;b&gt;&lt;i&gt;Gerente&lt;/i&gt;&lt;/b&gt;&lt;/font&gt;&lt;/div&gt;" style="shape=umlActor;verticalLabelPosition=bottom;verticalAlign=top;html=1;fillColor=#a20025;fontColor=#ffffff;strokeColor=#6F0000;sketch=1;curveFitting=1;jiggle=2;" vertex="1" parent="1">
          <mxGeometry x="550" y="240" width="70" height="120" as="geometry" />
        </mxCell>
        <mxCell id="hch1gG18QH-EERP9HJ0n-13" value="Fazer login" style="ellipse;whiteSpace=wrap;html=1;" vertex="1" parent="1">
          <mxGeometry x="55" y="440" width="140" height="70" as="geometry" />
        </mxCell>
        <mxCell id="hch1gG18QH-EERP9HJ0n-15" value="cadastrar conta" style="ellipse;whiteSpace=wrap;html=1;" vertex="1" parent="1">
          <mxGeometry x="50" y="560" width="140" height="70" as="geometry" />
        </mxCell>
        <mxCell id="hch1gG18QH-EERP9HJ0n-17" style="edgeStyle=orthogonalEdgeStyle;rounded=0;orthogonalLoop=1;jettySize=auto;html=1;entryX=1;entryY=0.714;entryDx=0;entryDy=0;entryPerimeter=0;fillColor=#008a00;strokeColor=#005700;" edge="1" parent="1" source="hch1gG18QH-EERP9HJ0n-3" target="hch1gG18QH-EERP9HJ0n-15">
          <mxGeometry relative="1" as="geometry" />
        </mxCell>
        <mxCell id="hch1gG18QH-EERP9HJ0n-18" value="Adicionar&amp;nbsp;&lt;div&gt;produto ao&amp;nbsp;&lt;/div&gt;&lt;div&gt;carrinho&lt;/div&gt;" style="ellipse;whiteSpace=wrap;html=1;" vertex="1" parent="1">
          <mxGeometry x="240" y="440" width="140" height="70" as="geometry" />
        </mxCell>
        <mxCell id="hch1gG18QH-EERP9HJ0n-19" style="edgeStyle=orthogonalEdgeStyle;rounded=0;orthogonalLoop=1;jettySize=auto;html=1;entryX=-0.007;entryY=0.371;entryDx=0;entryDy=0;entryPerimeter=0;fillColor=#0050ef;strokeColor=#001DBC;" edge="1" parent="1" source="hch1gG18QH-EERP9HJ0n-1" target="hch1gG18QH-EERP9HJ0n-18">
          <mxGeometry relative="1" as="geometry" />
        </mxCell>
        <mxCell id="hch1gG18QH-EERP9HJ0n-20" style="edgeStyle=orthogonalEdgeStyle;rounded=0;orthogonalLoop=1;jettySize=auto;html=1;entryX=1.007;entryY=0.386;entryDx=0;entryDy=0;entryPerimeter=0;fillColor=#008a00;strokeColor=#005700;" edge="1" parent="1" source="hch1gG18QH-EERP9HJ0n-3" target="hch1gG18QH-EERP9HJ0n-18">
          <mxGeometry relative="1" as="geometry" />
        </mxCell>
        <mxCell id="hch1gG18QH-EERP9HJ0n-21" value="Remover&amp;nbsp;&lt;div&gt;produto ao&amp;nbsp;&lt;/div&gt;&lt;div&gt;carrinho&lt;/div&gt;" style="ellipse;whiteSpace=wrap;html=1;" vertex="1" parent="1">
          <mxGeometry x="250" y="560" width="140" height="70" as="geometry" />
        </mxCell>
        <mxCell id="hch1gG18QH-EERP9HJ0n-24" value="Visualizar&lt;div&gt;&amp;nbsp;produto&lt;/div&gt;" style="ellipse;whiteSpace=wrap;html=1;" vertex="1" parent="1">
          <mxGeometry x="70" y="90" width="140" height="70" as="geometry" />
        </mxCell>
        <mxCell id="hch1gG18QH-EERP9HJ0n-25" value="Realizar&lt;div&gt;Pagamento&lt;/div&gt;" style="ellipse;whiteSpace=wrap;html=1;" vertex="1" parent="1">
          <mxGeometry x="230" y="90" width="140" height="70" as="geometry" />
        </mxCell>
        <mxCell id="hch1gG18QH-EERP9HJ0n-27" style="edgeStyle=orthogonalEdgeStyle;rounded=0;orthogonalLoop=1;jettySize=auto;html=1;entryX=0.393;entryY=1.029;entryDx=0;entryDy=0;entryPerimeter=0;fillColor=#0050ef;strokeColor=#001DBC;" edge="1" parent="1" source="hch1gG18QH-EERP9HJ0n-1" target="hch1gG18QH-EERP9HJ0n-24">
          <mxGeometry relative="1" as="geometry" />
        </mxCell>
        <mxCell id="hch1gG18QH-EERP9HJ0n-28" value="Ver histórico&lt;div&gt;de compra&lt;/div&gt;" style="ellipse;whiteSpace=wrap;html=1;" vertex="1" parent="1">
          <mxGeometry x="390" y="90" width="140" height="70" as="geometry" />
        </mxCell>
        <mxCell id="hch1gG18QH-EERP9HJ0n-29" style="rounded=0;orthogonalLoop=1;jettySize=auto;html=1;fillColor=#0050ef;strokeColor=#001DBC;" edge="1" parent="1" source="hch1gG18QH-EERP9HJ0n-1" target="hch1gG18QH-EERP9HJ0n-28">
          <mxGeometry relative="1" as="geometry" />
        </mxCell>
        <mxCell id="hch1gG18QH-EERP9HJ0n-30" value="Gerenciar&lt;div&gt;inventário&lt;/div&gt;" style="ellipse;whiteSpace=wrap;html=1;" vertex="1" parent="1">
          <mxGeometry x="440" y="440" width="140" height="70" as="geometry" />
        </mxCell>
        <mxCell id="hch1gG18QH-EERP9HJ0n-31" value="Gerar relatório" style="ellipse;whiteSpace=wrap;html=1;" vertex="1" parent="1">
          <mxGeometry x="430" y="550" width="140" height="70" as="geometry" />
        </mxCell>
        <mxCell id="hch1gG18QH-EERP9HJ0n-33" style="edgeStyle=orthogonalEdgeStyle;rounded=0;orthogonalLoop=1;jettySize=auto;html=1;entryX=0.764;entryY=0.057;entryDx=0;entryDy=0;entryPerimeter=0;fillColor=#1ba1e2;strokeColor=#006EAF;" edge="1" parent="1" source="hch1gG18QH-EERP9HJ0n-5" target="hch1gG18QH-EERP9HJ0n-30">
          <mxGeometry relative="1" as="geometry" />
        </mxCell>
        <mxCell id="hch1gG18QH-EERP9HJ0n-34" style="edgeStyle=orthogonalEdgeStyle;rounded=0;orthogonalLoop=1;jettySize=auto;html=1;entryX=1;entryY=0.714;entryDx=0;entryDy=0;entryPerimeter=0;fillColor=#a20025;strokeColor=#6F0000;" edge="1" parent="1" source="hch1gG18QH-EERP9HJ0n-10" target="hch1gG18QH-EERP9HJ0n-31">
          <mxGeometry relative="1" as="geometry" />
        </mxCell>
        <mxCell id="hch1gG18QH-EERP9HJ0n-35" style="rounded=0;sketch=1;hachureGap=4;jiggle=2;curveFitting=1;orthogonalLoop=1;jettySize=auto;html=1;fontFamily=Architects Daughter;fontSource=https%3A%2F%2Ffonts.googleapis.com%2Fcss%3Ffamily%3DArchitects%2BDaughter;fillColor=#1ba1e2;strokeColor=#006EAF;" edge="1" parent="1">
          <mxGeometry relative="1" as="geometry">
            <mxPoint x="480" y="250" as="sourcePoint" />
            <mxPoint x="560" y="250" as="targetPoint" />
          </mxGeometry>
        </mxCell>
        <mxCell id="hch1gG18QH-EERP9HJ0n-36" style="edgeStyle=orthogonalEdgeStyle;rounded=0;sketch=1;hachureGap=4;jiggle=2;curveFitting=1;orthogonalLoop=1;jettySize=auto;html=1;fontFamily=Architects Daughter;fontSource=https%3A%2F%2Ffonts.googleapis.com%2Fcss%3Ffamily%3DArchitects%2BDaughter;fillColor=#1ba1e2;strokeColor=#006EAF;entryX=0.25;entryY=0.1;entryDx=0;entryDy=0;entryPerimeter=0;" edge="1" parent="1" source="hch1gG18QH-EERP9HJ0n-5" target="hch1gG18QH-EERP9HJ0n-1">
          <mxGeometry relative="1" as="geometry">
            <Array as="points">
              <mxPoint x="550" y="300" />
              <mxPoint x="550" y="60" />
              <mxPoint x="50" y="60" />
              <mxPoint x="50" y="260" />
              <mxPoint x="108" y="260" />
            </Array>
          </mxGeometry>
        </mxCell>
        <mxCell id="hch1gG18QH-EERP9HJ0n-38" value="&lt;b&gt;Selecionar meio de pagamento&lt;/b&gt;" style="ellipse;whiteSpace=wrap;html=1;hachureGap=4;fontFamily=Architects Daughter;fontSource=https%3A%2F%2Ffonts.googleapis.com%2Fcss%3Ffamily%3DArchitects%2BDaughter;" vertex="1" parent="1">
          <mxGeometry x="240" y="-60" width="140" height="70" as="geometry" />
        </mxCell>
        <mxCell id="hch1gG18QH-EERP9HJ0n-40" value="Boleto" style="ellipse;whiteSpace=wrap;html=1;" vertex="1" parent="1">
          <mxGeometry x="55" y="-130" width="140" height="70" as="geometry" />
        </mxCell>
        <mxCell id="hch1gG18QH-EERP9HJ0n-41" value="PIX" style="ellipse;whiteSpace=wrap;html=1;" vertex="1" parent="1">
          <mxGeometry x="195" y="-210" width="140" height="70" as="geometry" />
        </mxCell>
        <mxCell id="hch1gG18QH-EERP9HJ0n-42" value="Cartão de&lt;div&gt;Crédito&lt;/div&gt;" style="ellipse;whiteSpace=wrap;html=1;" vertex="1" parent="1">
          <mxGeometry x="379" y="-230" width="140" height="70" as="geometry" />
        </mxCell>
        <mxCell id="hch1gG18QH-EERP9HJ0n-43" value="&amp;lt;extend&amp;gt;" style="endArrow=open;endSize=12;dashed=1;html=1;rounded=0;exitX=0.5;exitY=0;exitDx=0;exitDy=0;entryX=0.729;entryY=1;entryDx=0;entryDy=0;entryPerimeter=0;" edge="1" parent="1" source="hch1gG18QH-EERP9HJ0n-38" target="hch1gG18QH-EERP9HJ0n-41">
          <mxGeometry width="160" relative="1" as="geometry">
            <mxPoint x="360" y="-80" as="sourcePoint" />
            <mxPoint x="520" y="-80" as="targetPoint" />
          </mxGeometry>
        </mxCell>
        <mxCell id="hch1gG18QH-EERP9HJ0n-44" value="&amp;lt;extend&amp;gt;" style="endArrow=open;endSize=12;dashed=1;html=1;rounded=0;exitX=0.5;exitY=0;exitDx=0;exitDy=0;" edge="1" parent="1" source="hch1gG18QH-EERP9HJ0n-38">
          <mxGeometry width="160" relative="1" as="geometry">
            <mxPoint x="370" y="-70" as="sourcePoint" />
            <mxPoint x="200" y="-90" as="targetPoint" />
          </mxGeometry>
        </mxCell>
        <mxCell id="hch1gG18QH-EERP9HJ0n-45" value="&amp;lt;extend&amp;gt;" style="endArrow=open;endSize=12;dashed=1;html=1;rounded=0;entryX=0.214;entryY=0.9;entryDx=0;entryDy=0;entryPerimeter=0;" edge="1" parent="1" source="hch1gG18QH-EERP9HJ0n-38" target="hch1gG18QH-EERP9HJ0n-42">
          <mxGeometry x="-0.0391" y="-1" width="160" relative="1" as="geometry">
            <mxPoint x="380" y="-60" as="sourcePoint" />
            <mxPoint x="540" y="-60" as="targetPoint" />
            <mxPoint as="offset" />
          </mxGeometry>
        </mxCell>
        <mxCell id="hch1gG18QH-EERP9HJ0n-46" value="Validar dados" style="ellipse;whiteSpace=wrap;html=1;" vertex="1" parent="1">
          <mxGeometry x="570" y="-120" width="140" height="70" as="geometry" />
        </mxCell>
        <mxCell id="hch1gG18QH-EERP9HJ0n-48" value="&amp;lt;include&amp;gt;" style="endArrow=open;endSize=12;dashed=1;html=1;rounded=0;exitX=0.893;exitY=0.771;exitDx=0;exitDy=0;exitPerimeter=0;" edge="1" parent="1" source="hch1gG18QH-EERP9HJ0n-42" target="hch1gG18QH-EERP9HJ0n-46">
          <mxGeometry width="160" relative="1" as="geometry">
            <mxPoint x="460" y="-140" as="sourcePoint" />
            <mxPoint x="620" y="-140" as="targetPoint" />
          </mxGeometry>
        </mxCell>
        <mxCell id="hch1gG18QH-EERP9HJ0n-49" value="Gerar chave&lt;div&gt;&amp;nbsp;exclusiva&lt;/div&gt;" style="ellipse;whiteSpace=wrap;html=1;" vertex="1" parent="1">
          <mxGeometry x="20" y="-320" width="140" height="70" as="geometry" />
        </mxCell>
        <mxCell id="hch1gG18QH-EERP9HJ0n-50" value="&amp;lt;include&amp;gt;" style="endArrow=open;endSize=12;dashed=1;html=1;rounded=0;entryX=0.5;entryY=1;entryDx=0;entryDy=0;exitX=0.571;exitY=0.043;exitDx=0;exitDy=0;exitPerimeter=0;" edge="1" parent="1" source="hch1gG18QH-EERP9HJ0n-25" target="hch1gG18QH-EERP9HJ0n-38">
          <mxGeometry x="0.0119" width="160" relative="1" as="geometry">
            <mxPoint x="390" y="-40" as="sourcePoint" />
            <mxPoint x="550" y="-40" as="targetPoint" />
            <mxPoint as="offset" />
          </mxGeometry>
        </mxCell>
        <mxCell id="hch1gG18QH-EERP9HJ0n-51" value="&amp;lt;include&amp;gt;" style="endArrow=open;endSize=12;dashed=1;html=1;rounded=0;exitX=0.064;exitY=0.271;exitDx=0;exitDy=0;exitPerimeter=0;entryX=1;entryY=0.714;entryDx=0;entryDy=0;entryPerimeter=0;" edge="1" parent="1" source="hch1gG18QH-EERP9HJ0n-41" target="hch1gG18QH-EERP9HJ0n-49">
          <mxGeometry width="160" relative="1" as="geometry">
            <mxPoint x="130" y="-240" as="sourcePoint" />
            <mxPoint x="290" y="-240" as="targetPoint" />
          </mxGeometry>
        </mxCell>
      </root>
    </mxGraphModel>
  </diagram>
</mxfile>
